<svg width="18" height="18" viewBox="0 0 18 18" fill="none" xmlns="http://www.w3.org/2000/svg">
<path d="M8.99996 0.666666C4.39996 0.666666 0.666626 4.4 0.666626 9C0.666626 13.6 4.39996 17.3333 8.99996 17.3333C13.6 17.3333 17.3333 13.6 17.3333 9C17.3333 4.4 13.6 0.666666 8.99996 0.666666ZM8.99996 3.16667C10.3833 3.16667 11.5 4.28333 11.5 5.66667C11.5 7.05 10.3833 8.16667 8.99996 8.16667C7.61663 8.16667 6.49996 7.05 6.49996 5.66667C6.49996 4.28333 7.61663 3.16667 8.99996 3.16667ZM8.99996 15C6.91663 15 5.07496 13.9333 3.99996 12.3167C4.02496 10.6583 7.33329 9.75 8.99996 9.75C10.6583 9.75 13.975 10.6583 14 12.3167C12.925 13.9333 11.0833 15 8.99996 15Z" fill="white"/>
</svg>
